<?xml version="1.0" encoding="utf-8"?>
<!-- Generator: Adobe Illustrator 24.0.2, SVG Export Plug-In . SVG Version: 6.00 Build 0)  -->
<svg version="1.1" id="Layer_1" xmlns="http://www.w3.org/2000/svg" xmlns:xlink="http://www.w3.org/1999/xlink" x="0px" y="0px"
	 viewBox="0 0 160 43.22" width="160" height="43.22" style="enable-background:new 0 0 160 43.22;" xml:space="preserve">
<style type="text/css">
	.st0{fill:#8D8D8D;}
</style>
<g>
	<path class="st0" d="M135.09,5.83v1.53h-5.12c-1.1-1.22-2.78-2.01-4.67-2.01c-3.3,0-5.98,2.39-5.98,5.35s2.68,5.35,5.98,5.35
		c1.91,0,3.61-0.8,4.7-2.05h5.08v3.1h-12.52v2.67h12.52v5.17h3.08V5.83H135.09z M125.31,13.51c-1.65,0-2.99-1.26-2.99-2.81
		c0-1.55,1.34-2.81,2.99-2.81c1.65,0,2.99,1.26,2.99,2.81C128.3,12.25,126.96,13.51,125.31,13.51 M131.26,11.19
		c0.02-0.16,0.03-0.33,0.03-0.5c0-0.18-0.01-0.36-0.03-0.54h3.84v1.03H131.26z"/>
	<path class="st0" d="M114.64,9.51V5.8h-3.1v8.34h-2.15l0.02-6.81c-0.02-0.93-1.06-0.84-1.06-0.84L97.93,6.45v2.59h8.36v5.11h-3.02
		v-3.97h-3.14v3.97h-3.1v2.78h4.78c-0.69,0.94-1.09,2.05-1.09,3.25c0,3.28,2.97,5.94,6.64,5.94c3.67,0,6.64-2.66,6.64-5.94
		c0-1.2-0.4-2.32-1.09-3.25h1.73v-1.81v-0.97v-1.99h2.48V9.51H114.64z M107.36,23.65c-2.04,0-3.69-1.56-3.69-3.47
		c0-1.49,1-2.76,2.41-3.25h2.56c1.4,0.49,2.4,1.76,2.4,3.25C111.05,22.09,109.4,23.65,107.36,23.65"/>
	<path class="st0" d="M67.29,5.85v2.59h-9.43V5.95h-3.1l-0.01,9.16c0,0.9,0.88,0.89,0.88,0.89h14.64V5.85H67.29z M67.42,13.4h-9.56
		v-2.36h9.56V13.4z"/>
	<path class="st0" d="M57.66,35.06v-4.18h1.2v4.18c0,0.47,0.05,0.81,0.14,1.02c0.14,0.38,0.46,0.57,0.94,0.57
		c0.48,0,0.79-0.19,0.93-0.57c0.09-0.22,0.14-0.56,0.14-1.02v-4.18h1.2v4.18c0,0.72-0.09,1.29-0.28,1.69
		c-0.35,0.74-1.01,1.11-1.99,1.11c-0.98,0-1.64-0.37-2-1.11C57.75,36.35,57.66,35.78,57.66,35.06"/>
	<path class="st0" d="M62.62,35.58h1.13c0.04,0.31,0.11,0.54,0.21,0.7c0.19,0.28,0.52,0.42,0.99,0.42c0.28,0,0.51-0.04,0.68-0.11
		c0.33-0.14,0.5-0.4,0.5-0.79c0-0.22-0.08-0.4-0.25-0.52c-0.16-0.12-0.42-0.23-0.77-0.32l-0.6-0.16c-0.59-0.16-0.99-0.33-1.22-0.52
		c-0.38-0.31-0.57-0.8-0.57-1.47c0-0.61,0.18-1.11,0.55-1.52c0.37-0.4,0.91-0.6,1.62-0.6c0.6,0,1.1,0.19,1.53,0.57
		c0.42,0.38,0.64,0.93,0.66,1.65h-1.14c-0.02-0.41-0.17-0.7-0.45-0.87c-0.18-0.11-0.41-0.17-0.69-0.17c-0.3,0-0.55,0.07-0.73,0.22
		c-0.18,0.15-0.27,0.35-0.27,0.62c0,0.24,0.09,0.42,0.27,0.55c0.12,0.08,0.36,0.17,0.74,0.28l0.97,0.28
		c0.43,0.12,0.75,0.29,0.97,0.49c0.34,0.32,0.51,0.78,0.51,1.39c0,0.62-0.2,1.14-0.59,1.55c-0.4,0.41-0.95,0.62-1.67,0.62
		c-0.74,0-1.32-0.2-1.74-0.61C62.83,36.84,62.62,36.29,62.62,35.58"/>
	<path class="st0" d="M70.65,30.88h-1.34l-2.02,6.8h1.24l0.39-1.4H71l0.36,1.4h1.28L70.65,30.88z M69.24,35.11l0.73-2.68l0.71,2.68
		H69.24z"/>
	<polygon class="st0" points="73.25,37.68 73.25,30.88 74.49,30.88 76.74,35.63 76.74,30.88 77.84,30.88 77.84,37.68 76.66,37.68 
		74.35,32.85 74.35,37.68 	"/>
	<path class="st0" d="M83.07,36.23l1.02-5.35h1.7v6.8h-1.1v-4.6c0-0.13,0-0.32,0-0.56c0-0.24,0-0.42,0-0.55l-1.07,5.71h-1.15
		l-1.06-5.71c0,0.13,0,0.31,0,0.55c0,0.24,0,0.42,0,0.56v4.6h-1.1v-6.8h1.72L83.07,36.23z"/>
	<polygon class="st0" points="89.8,30.88 89.8,32.08 87.5,32.08 87.5,33.53 89.73,33.53 89.73,34.71 87.5,34.71 87.5,36.46 
		89.73,36.46 89.73,37.68 86.35,37.68 86.35,30.88 	"/>
	<polygon class="st0" points="90.18,30.88 94.07,30.88 94.07,32.08 92.72,32.08 92.72,37.68 91.53,37.68 91.53,32.08 90.18,32.08 	
		"/>
	<path class="st0" d="M97.5,34.92c0.88-0.04,1.31-0.84,1.45-1.15c0.14-0.31,0.2-0.63,0.2-0.95c0-0.27-0.04-0.51-0.11-0.72
		c-0.07-0.21-0.17-0.4-0.29-0.57c-0.15-0.21-0.33-0.37-0.54-0.48c-0.21-0.11-0.52-0.17-0.92-0.18h-2.77v6.8h1.16v-3.67l0.84,1.38
		l1.43,2.28h1.43L97.5,34.92z M95.67,33.89v-1.83h1.37c0.26,0,0.45,0.04,0.58,0.12c0.23,0.14,0.34,0.42,0.34,0.83
		c0,0.38-0.12,0.64-0.35,0.77c-0.13,0.07-0.33,0.11-0.6,0.11H95.67z"/>
	<path class="st0" d="M109.67,33.82c-0.15,0.16-0.37,0.24-0.65,0.24h-1.1v-2h1.1c0.28,0,0.5,0.08,0.65,0.23
		c0.15,0.15,0.23,0.4,0.23,0.76S109.82,33.65,109.67,33.82 M110.56,31.4c-0.34-0.35-0.79-0.53-1.36-0.53h-2.46v6.8h1.17v-2.45h1.2
		c0.63,0,1.11-0.17,1.45-0.5c0.34-0.33,0.51-0.9,0.51-1.7C111.07,32.3,110.9,31.75,110.56,31.4"/>
	<polygon class="st0" points="119.19,37.68 119.19,30.88 120.38,30.88 120.38,36.46 123.18,36.46 123.18,37.68 	"/>
	<rect x="123.78" y="30.88" class="st0" width="1.17" height="6.8"/>
	<polygon class="st0" points="125.45,30.88 129.35,30.88 129.35,32.08 128,32.08 128,37.68 126.81,37.68 126.81,32.08 125.45,32.08 
			"/>
	<path class="st0" d="M132.52,30.88h-1.34l-2.02,6.8h1.24l0.39-1.4h2.08l0.36,1.4h1.28L132.52,30.88z M131.11,35.11l0.73-2.68
		l0.71,2.68H131.11z"/>
	<polygon class="st0" points="135.85,37.68 135.85,32.85 138.16,37.68 139.34,37.68 139.34,30.88 138.24,30.88 138.24,35.63 
		135.99,30.88 134.75,30.88 134.75,37.68 	"/>
	<rect x="148.64" y="30.88" class="st0" width="1.17" height="6.8"/>
	<polygon class="st0" points="150.47,30.88 154.37,30.88 154.37,32.08 153.02,32.08 153.02,37.68 151.83,37.68 151.83,32.08 
		150.47,32.08 	"/>
	<polygon class="st0" points="157.54,33.84 158.66,30.88 160,30.88 158.11,35.12 158.11,37.68 156.93,37.68 156.93,35.12 
		154.97,30.88 156.36,30.88 	"/>
	<path class="st0" d="M115.1,30.88c-1.83,0-3.31,1.51-3.31,3.38c0,1.87,1.48,3.38,3.31,3.38c1.82,0,3.31-1.51,3.31-3.38
		C118.4,32.39,116.92,30.88,115.1,30.88 M115.1,36.59c-1.05,0-1.9-1.04-1.9-2.33c0-1.29,0.85-2.33,1.9-2.33
		c1.05,0,1.9,1.04,1.9,2.33C117,35.55,116.15,36.59,115.1,36.59"/>
	<path class="st0" d="M102.92,30.88c-1.82,0-3.3,1.51-3.3,3.38c0,1.87,1.48,3.38,3.3,3.38c1.83,0,3.31-1.51,3.31-3.38
		C106.22,32.39,104.74,30.88,102.92,30.88 M102.92,36.59c-1.05,0-1.9-1.04-1.9-2.33c0-1.29,0.85-2.33,1.9-2.33
		c1.05,0,1.9,1.04,1.9,2.33C104.82,35.55,103.97,36.59,102.92,36.59"/>
	<path class="st0" d="M145.2,36.47c-1.05,0-1.9-1.04-1.9-2.33s0.85-2.33,1.9-2.33c0.56,0,1.06,0.3,1.41,0.77h1.52
		c-0.55-1.08-1.66-1.82-2.93-1.82c-1.83,0-3.31,1.51-3.31,3.38c0,1.87,1.48,3.38,3.31,3.38c1.33,0,2.47-0.8,2.99-1.95h-1.49
		C146.35,36.12,145.81,36.47,145.2,36.47"/>
	<polygon class="st0" points="71.86,17.96 53.29,17.96 53.29,20.58 61.21,20.58 61.21,25.31 64.32,25.31 64.32,20.58 71.86,20.58 	
		"/>
	<path class="st0" d="M94.57,9.47h-2.48V5.76h-3.25v16.33H79.8v-4.26h-3.2v5.3c0.09,1.42,0.99,1.55,0.99,1.55l14.5,0.02V12.03h2.48
		V9.47z"/>
	<rect x="155.92" y="5.63" class="st0" width="3.31" height="19.19"/>
	<path class="st0" d="M73.88,14.03l6.33-7.93c0,0,0.6-0.69,1.08,0.09l6.16,7.93l-2.37,1.77l-4.35-5.39l-4.48,5.34L73.88,14.03z"/>
	<path class="st0" d="M140.5,15.37l6.59-9.44c0,0,0.43-0.56,0.95,0.04l6.51,9.44l-2.38,1.71l-4.72-6.95l-4.47,6.95L140.5,15.37z"/>
	<path class="st0" d="M44.64,20.23L34.22,10.23c-1.72,2.09-3.4,4.28-3.4,4.28c-2.18,3.18-4.45,3.82-4.45,3.82
		c-4.27,0.91-7.82,0-7.82,0c2.56-0.5,10.15-10.3,11.51-12.08L24.19,0.6c0,0-1.18-1.45-2.82,0.18L11.55,9.6c0,0,2.82-0.09,3.91,0.36
		c0,0,1.76,0.55,2.73,1.91c0,0,1.36,2.64,2.45,2.64c0,0,0.73,1.55-2.91,1.64c0,0-2.27-0.18-3.09-2.82c0,0-0.64-2.91-3.73-3.18
		L0.46,20.41c0,0-0.82,0.7-0.27,1.18h26.45c0,0,0.73-3,2.45-0.91c0,0,0.91-1.64,2-0.18c0,0,0.64-3.09,2.82-0.82
		c0,0,1.27-3.36,2.91-1.73c0,0,1,0.36,1.36,2.36c0,0,1.55-2.18,2.36,1.27c0,0-19.64,0.36-33.73,7.18l5.27,5.18
		c0,0,18.55-9.18,29.91-11.27c0,0-14.18,5.36-25.09,15.82l4.09,4c0,0,1.45,1.73,3.45-0.18l20.45-19.55
		C44.91,22.78,46.01,21.05,44.64,20.23"/>
	<path class="st0" d="M30.34,5.96C34.98,0.6,43.49,3.6,43.49,3.6c-1.73,0.09-5.82,3-5.82,3s-1.91,1.69-3.36,3.6l-4.22-3.94
		L30.34,5.96z"/>
	<path class="st0" d="M56.47,31.34c-0.33-0.36-0.77-0.54-1.33-0.54h-2.41v6.93h1.15v-2.87h1.17c0.61,0,1.08-0.17,1.41-0.51
		c0.33-0.34,0.49-0.91,0.5-1.51C56.98,32.26,56.81,31.69,56.47,31.34 M55.61,33.43c-0.17,0.15-0.38,0.22-0.65,0.22h-1.08v-1.65h1.08
		c0.27,0,0.5,0.05,0.65,0.2c0.15,0.15,0.22,0.33,0.22,0.52C55.83,32.93,55.82,33.25,55.61,33.43"/>
	<path class="st0" d="M56.47,34.24c-0.33-0.36-0.77-0.54-1.33-0.54h-2.41v4.05h1.15v0.01h1.17c0.61,0,1.08-0.17,1.41-0.51
		c0.33-0.34,0.49-0.91,0.5-1.51C56.98,35.16,56.81,34.6,56.47,34.24 M55.61,36.33c-0.17,0.15-0.38,0.22-0.65,0.22h-1.08v-1.65h1.08
		c0.27,0,0.5,0.05,0.65,0.2c0.15,0.15,0.22,0.33,0.22,0.52C55.83,35.83,55.82,36.15,55.61,36.33"/>
</g>
</svg>
