<?xml version="1.0" encoding="utf-8"?>
<!-- Generator: Adobe Illustrator 24.0.2, SVG Export Plug-In . SVG Version: 6.00 Build 0)  -->
<svg version="1.1" id="Layer_1" xmlns="http://www.w3.org/2000/svg" xmlns:xlink="http://www.w3.org/1999/xlink" x="0px" y="0px"
	 viewBox="0 0 198 36.94" width="198" height="36.94" style="enable-background:new 0 0 198 36.94;" xml:space="preserve">
<style type="text/css">
	.st0{fill:#8D8C8C;}
</style>
<g>
	<path class="st0" d="M28.52,17.63c-3.21-2.18-7.32-1.29-9.48,1.99c-1.8,2.74-4.52,3.08-5.57,3.08c-3.43,0-5.78-2.41-6.48-4.91h0
		c-0.01-0.03-0.01-0.05-0.02-0.07c-0.01-0.03-0.02-0.06-0.02-0.08c-0.27-1.04-0.34-1.54-0.34-2.65c0-5.97,6.13-12.63,14.96-12.63
		c9.04,0,14.22,6.88,15.55,10.71c-0.02-0.07-0.04-0.13-0.07-0.2C34.48,5.38,27.39,0,19.04,0C8.52,0,0,8.52,0,19.03
		c0,9.4,6.78,17.44,16.18,17.44c7.5,0,12.54-4.21,14.85-10C32.3,23.31,31.4,19.58,28.52,17.63"/>
	<path class="st0" d="M37.23,13.43C36.12,9.7,30.91,2.36,21.57,2.36c-8.83,0-14.96,6.65-14.96,12.63c0,1.11,0.07,1.61,0.34,2.65
		c-0.12-0.46-0.17-0.91-0.17-1.36c0-6.22,6.23-10.53,12.63-10.53c8.67,0,15.7,7.03,15.7,15.69c0,6.8-3.91,12.68-9.59,15.5l0,0
		c7.32-2.65,12.56-9.67,12.56-17.91C38.07,17.09,37.81,15.37,37.23,13.43"/>
	<path class="st0" d="M66.22,17.38v2.32h-8.27v3.26h-2.67V19.7h-8.43v-2.32H66.22z M48.41,7.13h16.25v8.1H48.41V7.13z M51.03,21.18
		v4.09h13.89v2.32H48.41v-6.4H51.03z M62.07,9.38H50.99v3.68h11.08V9.38z"/>
	<path class="st0" d="M82.16,25.84H68.35v-2.29h5.55v-2.62c-0.25-0.06-0.49-0.14-0.71-0.23c-0.63-0.25-1.18-0.59-1.65-1.02
		c-0.47-0.44-0.84-0.95-1.11-1.52c-0.27-0.58-0.4-1.19-0.4-1.83c0-0.65,0.14-1.25,0.4-1.82c0.27-0.57,0.64-1.07,1.11-1.51
		c0.47-0.44,1.02-0.78,1.64-1.03c0.62-0.24,1.29-0.36,1.99-0.36c0.71,0,1.37,0.12,1.99,0.36c0.62,0.25,1.15,0.59,1.61,1.03
		c0.47,0.44,0.85,0.94,1.12,1.51c0.27,0.57,0.41,1.17,0.41,1.82c0,0.65-0.14,1.26-0.41,1.83c-0.28,0.57-0.65,1.08-1.12,1.52
		c-0.46,0.43-0.99,0.76-1.61,1.02c-0.25,0.11-0.51,0.2-0.78,0.26v2.6h5.79V25.84z M73.71,8.97V6.73h2.84v2.24h5.13v2.25H68.58V8.97
		H73.71z M77.75,16.3c0-0.69-0.25-1.29-0.76-1.78c-0.51-0.5-1.12-0.74-1.84-0.74c-0.73,0-1.34,0.25-1.84,0.74
		c-0.5,0.49-0.76,1.09-0.76,1.78c0,0.69,0.26,1.29,0.76,1.8c0.5,0.5,1.12,0.75,1.84,0.75c0.72,0,1.34-0.25,1.84-0.75
		C77.49,17.59,77.75,16.99,77.75,16.3 M86.25,27.94h-2.6V6.87h2.6v9.14h2.69v2.53h-2.69V27.94z"/>
	<path class="st0" d="M90.1,11.22V8.97h4.47V6.73h2.76v2.24h4.21v2.25h-4.78l5.01,13.25l-2.29,0.78l-3.52-9.54l-3.52,9.71
		l-2.36-0.76l5.03-13.44H90.1z M103.28,6.89h2.43v20.93h-2.43V17.64h-2.74v-2.39h2.74V6.89z M107.7,6.87h2.53v21.07h-2.53V6.87z"/>
	<path class="st0" d="M130.61,21.49v6.5h-2.62v-4.25h-14.13v-2.24h3.35l0.03-2.46h-4.44v-2.27h19.37v2.27h-4.47v2.46H130.61z
		 M127.69,11.19c0,0.66-0.14,1.28-0.42,1.87c-0.29,0.58-0.66,1.1-1.11,1.56c-0.47,0.43-1.02,0.77-1.65,1.03
		c-0.63,0.26-1.3,0.39-2.01,0.39c-0.71,0-1.38-0.13-2.02-0.39c-0.64-0.26-1.2-0.6-1.66-1.03c-0.46-0.45-0.83-0.97-1.11-1.56
		c-0.28-0.58-0.43-1.21-0.43-1.87c0-0.66,0.14-1.28,0.43-1.87c0.28-0.58,0.66-1.1,1.11-1.56c0.47-0.44,1.03-0.79,1.66-1.05
		c0.64-0.26,1.31-0.39,2.02-0.39c0.71,0,1.38,0.13,2.01,0.39c0.63,0.26,1.18,0.61,1.65,1.05c0.46,0.46,0.83,0.98,1.11,1.56
		C127.54,9.91,127.69,10.53,127.69,11.19 M119.63,21.49h5.67v-2.46h-5.65L119.63,21.49z M125.11,11.19c0-0.71-0.25-1.31-0.77-1.81
		c-0.51-0.5-1.13-0.74-1.85-0.74c-0.72,0-1.35,0.25-1.87,0.74c-0.52,0.5-0.78,1.1-0.78,1.81c0,0.71,0.26,1.32,0.78,1.82
		c0.52,0.51,1.14,0.76,1.87,0.76c0.72,0,1.34-0.25,1.85-0.76C124.86,12.51,125.11,11.9,125.11,11.19"/>
	<path class="st0" d="M147.45,16.96v2.29h-12.59v-2.29h4.25v-4.58h2.48v4.58H147.45z M144.17,15.02V9.63h-8.72V7.3h11.26v7.72
		H144.17z M138.43,20.92v4.28h14.57v2.31h-17.2v-6.59H138.43z M152.44,19.98h-2.62V6.87h2.62v5.15h2.69v2.5h-2.69V19.98z"/>
	<path class="st0" d="M161.18,15.92v-4.11h2.48v4.11h5.86v2.2h-12.59v-2.2H161.18z M166.24,14.03V9.61h-8.72V7.3h11.27v6.73H166.24z
		 M172.61,23.76c0,0.68-0.14,1.3-0.43,1.88c-0.28,0.57-0.66,1.09-1.13,1.55c-0.46,0.44-1,0.79-1.63,1.05
		c-0.63,0.26-1.31,0.39-2.03,0.39c-0.73,0-1.4-0.13-2.03-0.39c-0.63-0.26-1.18-0.61-1.65-1.05c-0.47-0.45-0.85-0.97-1.12-1.55
		c-0.28-0.58-0.42-1.2-0.42-1.88c0-0.68,0.14-1.31,0.42-1.9c0.27-0.59,0.65-1.11,1.12-1.57c0.47-0.43,1.03-0.77,1.65-1.03
		c0.63-0.26,1.31-0.39,2.03-0.39c0.73,0,1.4,0.13,2.03,0.39c0.63,0.26,1.17,0.6,1.63,1.03c0.47,0.46,0.85,0.98,1.13,1.57
		C172.47,22.45,172.61,23.08,172.61,23.76 M170.04,23.74c0-0.72-0.26-1.34-0.78-1.85c-0.52-0.51-1.14-0.77-1.86-0.77
		c-0.73,0-1.35,0.25-1.88,0.77c-0.53,0.51-0.79,1.13-0.79,1.85c0,0.73,0.26,1.33,0.79,1.83c0.53,0.5,1.15,0.74,1.88,0.74
		c0.73,0,1.34-0.25,1.86-0.74C169.78,25.07,170.04,24.46,170.04,23.74 M174.5,18.47h-2.62V6.87h2.62v4.3h2.69v2.46h-2.69V18.47z"/>
	<path class="st0" d="M178.63,20.18H198v2.31h-8.39v5.43h-2.62v-5.43h-8.36V20.18z M182.76,9.88h11.08V7.21h2.6v10.13h-16.25V7.21
		h2.57V9.88z M193.84,12.15h-11.08v2.9h11.08V12.15z"/>
</g>
</svg>
